<svg xmlns="http://www.w3.org/2000/svg" width="150" height="29.795" viewBox="0 0 150 29.795"><defs><style>.a{fill:#fff;}.b{fill:#ff4436;}</style></defs><path class="a" d="M425.327,358.751a9.584,9.584,0,0,1-1.749,1.628,10.473,10.473,0,0,1-1.986,1.033,12.578,12.578,0,0,1-2.107.517,13.512,13.512,0,0,1-2.184.159,8.766,8.766,0,0,1-3.536-.676,8.266,8.266,0,0,1-2.9-2.066,9.739,9.739,0,0,1-1.986-3.3,13.138,13.138,0,0,1-.715-4.489,12.508,12.508,0,0,1,.636-4.132,9.883,9.883,0,0,1,1.907-3.337,8.275,8.275,0,0,1,3.1-2.184,10.955,10.955,0,0,1,4.251-.8,19.041,19.041,0,0,1,6.436,1.47l-.04,6.278h-2.264a.871.871,0,0,1-.914-.755c-.039-.318-.158-1.271-.317-2.86a10.487,10.487,0,0,0-2.622-.4,5.009,5.009,0,0,0-2.265.477,4.213,4.213,0,0,0-1.589,1.311,5.931,5.931,0,0,0-.993,2.145,11.874,11.874,0,0,0-.319,2.782,10.729,10.729,0,0,0,.358,2.9,6.676,6.676,0,0,0,.994,2.145,4.622,4.622,0,0,0,1.588,1.311,5.132,5.132,0,0,0,2.105.437,5.074,5.074,0,0,0,1.907-.279,5.9,5.9,0,0,0,1.233-.636c.317-.238.636-.437.873-.636a1.147,1.147,0,0,1,.8-.278.986.986,0,0,1,.913.437Z" transform="translate(-408.165 -332.293)"/><path class="a" d="M445.148,341.867a8.619,8.619,0,0,1,3.178,2.066,9.166,9.166,0,0,1,1.987,3.3,13.6,13.6,0,0,1,0,8.7,9.334,9.334,0,0,1-1.987,3.337,8.708,8.708,0,0,1-3.178,2.105,11.393,11.393,0,0,1-4.131.716,11.614,11.614,0,0,1-4.171-.716,8.7,8.7,0,0,1-3.178-2.105,9.48,9.48,0,0,1-2.067-3.337,13.6,13.6,0,0,1,0-8.7,9.314,9.314,0,0,1,2.067-3.3,8.606,8.606,0,0,1,3.178-2.066,11.631,11.631,0,0,1,4.171-.755A11.41,11.41,0,0,1,445.148,341.867Zm-.4,14.738a10.785,10.785,0,0,0,0-10.011,4.215,4.215,0,0,0-3.734-1.748,4.41,4.41,0,0,0-3.814,1.748,8.591,8.591,0,0,0-1.271,5.045,8.322,8.322,0,0,0,1.271,4.966,4.382,4.382,0,0,0,3.814,1.709A4.188,4.188,0,0,0,444.751,356.606Z" transform="translate(-412.651 -332.293)"/><path class="a" d="M479.792,359.561h-5.8a1.343,1.343,0,0,1-.795-.239,1.022,1.022,0,0,1-.437-.675l-.4-1.868a10.291,10.291,0,0,1-2.821,2.265,7.684,7.684,0,0,1-3.774.874,6.362,6.362,0,0,1-3.018-.676,7.219,7.219,0,0,1-2.384-2.026,9.529,9.529,0,0,1-1.55-3.258,16.841,16.841,0,0,1-.555-4.449,14.384,14.384,0,0,1,.6-4.211,10.163,10.163,0,0,1,1.787-3.377,8.268,8.268,0,0,1,2.742-2.224,7.686,7.686,0,0,1,3.615-.835,7.19,7.19,0,0,1,2.94.556,6.987,6.987,0,0,1,2.145,1.43v-6.794c-.516-.079-.874-.159-1.152-.2s-.477-.119-.6-.119a1.392,1.392,0,0,1-.239-.04,1.141,1.141,0,0,1-.994-1.231v-2.344h7.906v25.544c.437.08.795.12,1.033.159s.437.12.517.12.159.04.238.04a1.14,1.14,0,0,1,.993,1.231Zm-7.668-15.1a5,5,0,0,0-1.827-1.429,5.59,5.59,0,0,0-2.145-.437,4.565,4.565,0,0,0-1.987.437,4.29,4.29,0,0,0-1.548,1.271,6.706,6.706,0,0,0-.954,2.145,11.671,11.671,0,0,0-.317,3.059,13.651,13.651,0,0,0,.277,3.059,5.764,5.764,0,0,0,.835,1.986,3.2,3.2,0,0,0,1.271,1.152,4.168,4.168,0,0,0,1.748.357,4.931,4.931,0,0,0,2.622-.636,7.828,7.828,0,0,0,2.026-1.827Z" transform="translate(-418.056 -330.123)"/><path class="a" d="M499.973,341.708a7.721,7.721,0,0,1,2.781,1.828,8.037,8.037,0,0,1,1.827,2.9,10.815,10.815,0,0,1,.675,3.893,6.07,6.07,0,0,1-.079.953,1.551,1.551,0,0,1-.159.556.7.7,0,0,1-.357.318,1.179,1.179,0,0,1-.556.079H491.512a7.014,7.014,0,0,0,1.708,4.608,5.212,5.212,0,0,0,3.893,1.47,6.105,6.105,0,0,0,2.026-.278,9.151,9.151,0,0,0,1.51-.636c.437-.238.834-.4,1.152-.6a1.634,1.634,0,0,1,.913-.278,1.257,1.257,0,0,1,.556.12.9.9,0,0,1,.358.317l1.43,1.788a8.817,8.817,0,0,1-1.828,1.628,9.35,9.35,0,0,1-2.105,1.033,15.517,15.517,0,0,1-2.264.517,14.354,14.354,0,0,1-2.225.159,10.637,10.637,0,0,1-3.933-.676,9.087,9.087,0,0,1-3.178-2.105,9.643,9.643,0,0,1-2.145-3.417,13.275,13.275,0,0,1-.754-4.727,11.448,11.448,0,0,1,.676-3.894,9.437,9.437,0,0,1,1.946-3.217,8.866,8.866,0,0,1,3.059-2.144,10.492,10.492,0,0,1,4.132-.8A10.16,10.16,0,0,1,499.973,341.708Zm-6.794,4.132a6.087,6.087,0,0,0-1.549,3.417h9.217a6.479,6.479,0,0,0-.279-1.788,4.062,4.062,0,0,0-.794-1.47,3.434,3.434,0,0,0-1.352-.993,4.794,4.794,0,0,0-1.907-.4A4.531,4.531,0,0,0,493.18,345.84Z" transform="translate(-423.656 -332.293)"/><g transform="translate(86.543 10.336)"><path class="b" d="M516,361.422V343h12.271v2.568H518.9v5.5h7.836v2.413H518.9v7.938Z" transform="translate(-515.997 -343.002)"/><path class="b" d="M539.562,361.422V343h2.906v15.852h9.884v2.568Z" transform="translate(-520.649 -343.002)"/><path class="b" d="M563.29,361.422V343H566.2v18.42Z" transform="translate(-525.334 -343.002)"/><path class="b" d="M577.563,343l5.111,7.264L587.784,343h3.19l-6.745,9.339,6.539,9.08h-3.192l-4.9-7-4.9,7h-3.216l6.563-9.08L574.345,343Z" transform="translate(-527.517 -343.002)"/></g></svg>