<svg xmlns="http://www.w3.org/2000/svg" width="120" height="23.836" viewBox="0 0 120 23.836"><defs><style>.a{fill:#777;}</style></defs><path class="a" d="M421.895,355.223a7.668,7.668,0,0,1-1.4,1.3,8.378,8.378,0,0,1-1.588.826,10.061,10.061,0,0,1-1.685.413,10.809,10.809,0,0,1-1.747.127,7.013,7.013,0,0,1-2.829-.541,6.612,6.612,0,0,1-2.32-1.653,7.791,7.791,0,0,1-1.588-2.638,10.51,10.51,0,0,1-.572-3.591,10.007,10.007,0,0,1,.508-3.306,7.906,7.906,0,0,1,1.525-2.67,6.62,6.62,0,0,1,2.478-1.747,8.764,8.764,0,0,1,3.4-.636,15.233,15.233,0,0,1,5.149,1.176l-.032,5.022h-1.811a.7.7,0,0,1-.731-.6c-.031-.254-.127-1.017-.254-2.288a8.389,8.389,0,0,0-2.1-.318,4.008,4.008,0,0,0-1.812.381,3.37,3.37,0,0,0-1.271,1.048,4.744,4.744,0,0,0-.794,1.716,9.5,9.5,0,0,0-.255,2.225,8.582,8.582,0,0,0,.286,2.32,5.34,5.34,0,0,0,.795,1.716,3.7,3.7,0,0,0,1.271,1.049,4.106,4.106,0,0,0,1.684.349,4.06,4.06,0,0,0,1.525-.223,4.724,4.724,0,0,0,.986-.509c.254-.191.508-.349.7-.508a.918.918,0,0,1,.636-.222.789.789,0,0,1,.73.349Z" transform="translate(-408.165 -334.056)"/><path class="a" d="M442.3,341.716a6.9,6.9,0,0,1,2.543,1.653,7.332,7.332,0,0,1,1.59,2.638,10.882,10.882,0,0,1,0,6.96,7.467,7.467,0,0,1-1.59,2.67,6.966,6.966,0,0,1-2.543,1.684,9.114,9.114,0,0,1-3.3.573,9.291,9.291,0,0,1-3.337-.573,6.956,6.956,0,0,1-2.543-1.684,7.585,7.585,0,0,1-1.653-2.67,10.881,10.881,0,0,1,0-6.96,7.451,7.451,0,0,1,1.653-2.638,6.885,6.885,0,0,1,2.543-1.653,9.3,9.3,0,0,1,3.337-.6A9.127,9.127,0,0,1,442.3,341.716Zm-.318,11.791a8.628,8.628,0,0,0,0-8.009,3.372,3.372,0,0,0-2.987-1.4,3.528,3.528,0,0,0-3.051,1.4,6.873,6.873,0,0,0-1.017,4.036,6.657,6.657,0,0,0,1.017,3.973,3.506,3.506,0,0,0,3.051,1.367A3.35,3.35,0,0,0,441.978,353.507Z" transform="translate(-416.298 -334.056)"/><path class="a" d="M475.486,353.673h-4.64a1.074,1.074,0,0,1-.636-.191.817.817,0,0,1-.35-.54l-.317-1.494a8.233,8.233,0,0,1-2.257,1.812,6.147,6.147,0,0,1-3.02.7,5.09,5.09,0,0,1-2.415-.541,5.775,5.775,0,0,1-1.907-1.621,7.622,7.622,0,0,1-1.24-2.606,13.471,13.471,0,0,1-.444-3.56,11.505,11.505,0,0,1,.476-3.369,8.13,8.13,0,0,1,1.43-2.7,6.614,6.614,0,0,1,2.193-1.779,6.148,6.148,0,0,1,2.892-.668,5.752,5.752,0,0,1,2.352.445,5.59,5.59,0,0,1,1.716,1.144v-5.435c-.413-.063-.7-.127-.921-.159s-.381-.1-.476-.1a1.115,1.115,0,0,1-.191-.032.913.913,0,0,1-.795-.985v-1.875h6.325v20.435c.35.064.636.1.826.127s.349.1.413.1.127.032.191.032a.912.912,0,0,1,.794.985ZM469.352,341.6a4,4,0,0,0-1.461-1.143,4.472,4.472,0,0,0-1.716-.35,3.652,3.652,0,0,0-1.59.35,3.432,3.432,0,0,0-1.239,1.017,5.365,5.365,0,0,0-.763,1.716,9.335,9.335,0,0,0-.254,2.447,10.921,10.921,0,0,0,.221,2.448,4.61,4.61,0,0,0,.668,1.588,2.556,2.556,0,0,0,1.017.922,3.334,3.334,0,0,0,1.4.286,3.945,3.945,0,0,0,2.1-.509,6.263,6.263,0,0,0,1.621-1.461Z" transform="translate(-426.097 -330.123)"/><path class="a" d="M497.3,341.588a6.177,6.177,0,0,1,2.225,1.463,6.429,6.429,0,0,1,1.462,2.32,8.652,8.652,0,0,1,.54,3.115,4.856,4.856,0,0,1-.064.763,1.241,1.241,0,0,1-.127.445.56.56,0,0,1-.286.254.943.943,0,0,1-.445.064H490.534A5.611,5.611,0,0,0,491.9,353.7a4.169,4.169,0,0,0,3.115,1.176,4.884,4.884,0,0,0,1.621-.223,7.319,7.319,0,0,0,1.208-.508c.349-.191.667-.318.921-.477a1.307,1.307,0,0,1,.731-.222,1,1,0,0,1,.445.1.72.72,0,0,1,.286.254l1.144,1.431a7.054,7.054,0,0,1-1.463,1.3,7.48,7.48,0,0,1-1.684.826,12.41,12.41,0,0,1-1.811.413,11.482,11.482,0,0,1-1.78.127,8.509,8.509,0,0,1-3.147-.541,7.27,7.27,0,0,1-2.543-1.684,7.714,7.714,0,0,1-1.716-2.733,10.62,10.62,0,0,1-.6-3.782,9.159,9.159,0,0,1,.541-3.115,7.55,7.55,0,0,1,1.557-2.574,7.093,7.093,0,0,1,2.447-1.716,8.393,8.393,0,0,1,3.306-.636A8.128,8.128,0,0,1,497.3,341.588Zm-5.435,3.306a4.87,4.87,0,0,0-1.239,2.733H498a5.182,5.182,0,0,0-.223-1.43,3.249,3.249,0,0,0-.635-1.176,2.747,2.747,0,0,0-1.081-.794,3.835,3.835,0,0,0-1.526-.318A3.625,3.625,0,0,0,491.869,344.894Z" transform="translate(-436.25 -334.056)"/><g transform="translate(69.234 8.269)"><path class="a" d="M516,357.738V343h9.817v2.055h-7.493v4.4h6.268v1.931h-6.268v6.351Z" transform="translate(-515.997 -343.002)"/><path class="a" d="M539.562,357.738V343h2.325v12.681h7.908v2.055Z" transform="translate(-524.432 -343.002)"/><path class="a" d="M563.29,357.738V343h2.325v14.736Z" transform="translate(-532.925 -343.002)"/><path class="a" d="M576.919,343l4.089,5.811L585.1,343h2.552l-5.4,7.472,5.231,7.264H584.93l-3.922-5.6-3.924,5.6h-2.573l5.251-7.264L574.345,343Z" transform="translate(-536.883 -343.002)"/></g></svg>